<?xml version="1.0" encoding="UTF-8"?>
<svg version="1.1" xmlns="http://www.w3.org/2000/svg" width="529" height="149">
<path d="M0 0 C5.15405805 3.73645739 9.31243915 8.38197309 10.62890625 14.75 C10.81774271 18.45363127 10.54426216 20.64168054 8.5625 23.8125 C5.29264866 25.82471621 2.96297545 26.24632801 -0.875 26.3125 C-6.44192817 24.65426608 -9.33050678 20.75134738 -12.84765625 16.37109375 C-16.11288346 13.05553549 -18.80541782 12.4038058 -23.3984375 12.01171875 C-32.18827003 11.98497484 -37.66380765 12.42246603 -45.0625 17.5 C-52.32634061 24.76384061 -53.88822805 34.220443 -54.1875 44.1875 C-53.99537095 52.98022945 -52.5682308 61.75368859 -46.71875 68.62109375 C-41.30025369 73.59187532 -35.68428387 75.61034713 -28.375 75.9375 C-22.02946404 75.65314815 -16.93115077 74.23878467 -11.875 70.3125 C-8.73882537 66.65483675 -6.89052246 63.01321737 -5.875 58.3125 C-7.04417969 58.27511719 -8.21335937 58.23773438 -9.41796875 58.19921875 C-10.96617675 58.1335372 -12.51435242 58.06709061 -14.0625 58 C-14.83142578 57.97744141 -15.60035156 57.95488281 -16.39257812 57.93164062 C-21.40908232 57.69480996 -25.15627046 57.03122954 -28.875 53.3125 C-29.1484375 51.38671875 -29.1484375 51.38671875 -29.25 49 C-29.29898438 48.22011719 -29.34796875 47.44023438 -29.3984375 46.63671875 C-28.60421409 43.11012974 -26.88397815 42.22680917 -23.875 40.3125 C-21.07026276 39.92195531 -18.66897378 39.75009851 -15.87109375 39.78125 C-15.11079361 39.7774231 -14.35049347 39.77359619 -13.56715393 39.76965332 C-11.96606109 39.76694074 -10.36492344 39.77425621 -8.76391602 39.79101562 C-6.31621522 39.81246744 -3.87143911 39.79117982 -1.42382812 39.765625 C0.13542313 39.76826782 1.69467256 39.77339185 3.25390625 39.78125 C4.34778404 39.76910461 4.34778404 39.76910461 5.46376038 39.75671387 C8.61276136 39.81473733 10.83200436 40.14524032 13.58154297 41.71484375 C16.00565707 45.79465615 15.71572045 49.74364957 15.69140625 54.40625 C15.69760483 55.38992554 15.70380341 56.37360107 15.71018982 57.38708496 C15.71728747 59.46491507 15.71411495 61.54280205 15.70141602 63.62060547 C15.68754788 66.80151854 15.72162521 69.97949157 15.75976562 73.16015625 C15.7607168 75.17968822 15.7588581 77.19922388 15.75390625 79.21875 C15.76716446 80.16987671 15.78042267 81.12100342 15.79408264 82.10095215 C15.70154098 88.6556827 15.70154098 88.6556827 12.81225586 91.94726562 C9.14323369 93.81127689 7.03947342 93.39985373 3.125 92.3125 C1.25 91.1875 1.25 91.1875 0.125 89.3125 C-0.24209085 86.98423888 -0.57799553 84.65073521 -0.875 82.3125 C-1.74382812 82.93898438 -2.61265625 83.56546875 -3.5078125 84.2109375 C-4.67159753 85.03684946 -5.83567571 85.86234844 -7 86.6875 C-7.56976563 87.1 -8.13953125 87.5125 -8.7265625 87.9375 C-19.19672022 95.31420203 -32.5133615 94.70610642 -44.7890625 92.66015625 C-55.44025122 89.69866822 -63.41896391 84.23603495 -69.41015625 74.91796875 C-77.3656539 60.76779027 -79.28289407 43.62406257 -75.6875 27.8125 C-72.3763648 16.73469284 -66.75217445 6.15533988 -56.42578125 0.19921875 C-38.7138791 -9.18486648 -17.57725115 -10.39577127 0 0 Z " fill="#81FED0" transform="translate(91.875,20.6875)"/>
<path d="M0 0 C2.51533023 1.95636796 3.17344387 2.78157189 4.25 5.75 C4.44102051 8.57578146 4.52321476 11.30183034 4.50878906 14.12695312 C4.5122937 14.9696727 4.51579834 15.81239227 4.51940918 16.6806488 C4.52820643 19.46426651 4.52238441 22.24762974 4.515625 25.03125 C4.51697223 26.96651254 4.51891324 28.90177475 4.52142334 30.83703613 C4.52437188 34.89220402 4.52008559 38.94728377 4.51074219 43.00244141 C4.49934784 48.20121526 4.50590874 53.39978261 4.51788712 58.59854889 C4.52511297 62.5945186 4.52281444 66.59043934 4.51763153 70.58641052 C4.51629704 72.50337244 4.51793573 74.4203388 4.52259064 76.33729553 C4.52766773 79.01599922 4.51992895 81.69436813 4.50878906 84.37304688 C4.51283752 85.16589584 4.51688599 85.95874481 4.52105713 86.77561951 C4.4684979 93.59522688 4.4684979 93.59522688 2.25 96.75 C-0.97794238 99.05567313 -3.86566819 99.07369432 -7.75 98.75 C-9.9375 98.1875 -9.9375 98.1875 -11.75 96.75 C-12.98204345 94.46040852 -13.84222506 92.20099234 -14.75 89.75 C-15.24628906 90.23210937 -15.74257813 90.71421875 -16.25390625 91.2109375 C-22.48955102 97.00878558 -27.86541603 99.2224553 -36.41796875 99.00390625 C-45.76777527 97.98592062 -53.22005248 93.29858368 -59.13671875 86.109375 C-65.99858017 76.07411036 -65.97224241 63.45978937 -64.75 51.75 C-62.56850325 41.72179299 -57.27024658 33.5373373 -48.75 27.75 C-40.645687 24.14808311 -33.44665204 23.97361927 -25.05859375 26.60546875 C-21.83655006 28.20286097 -19.45307563 30.38044589 -16.75 32.75 C-16.73541748 31.95827393 -16.72083496 31.16654785 -16.70581055 30.35083008 C-16.63121644 26.75423457 -16.53459167 23.15855557 -16.4375 19.5625 C-16.41494141 18.31662109 -16.39238281 17.07074219 -16.36914062 15.78710938 C-16.33369141 14.58505859 -16.29824219 13.38300781 -16.26171875 12.14453125 C-16.23553467 11.03956299 -16.20935059 9.93459473 -16.18237305 8.79614258 C-15.70250647 5.41539993 -14.7411283 3.49798454 -12.75 0.75 C-8.70831417 -2.17673801 -4.4400365 -2.01819841 0 0 Z M-40.75 44.75 C-45.43524271 51.84885258 -46.44063166 59.75909853 -45 68 C-43.63499079 73.81026945 -41.43624905 78.0249199 -36.6171875 81.7890625 C-32.75914727 83.77458111 -28.91569274 83.66618875 -24.75 82.75 C-20.55174921 80.5960467 -17.77155671 77.45933199 -15.8125 73.1875 C-13.40538416 65.38306232 -13.76884749 56.23204289 -16.69140625 48.625 C-18.80164608 44.88730583 -21.93108935 42.65945532 -25.75 40.75 C-31.67072793 40.2482434 -36.27093755 40.52103748 -40.75 44.75 Z " fill="#78FECD" transform="translate(319.75,15.25)"/>
<path d="M0 0 C3.81696854 4.20330139 5.89453342 7.41094944 5.99414062 13.19165039 C6.01085815 14.02003922 6.02757568 14.84842804 6.0447998 15.70191956 C6.05837524 16.59563766 6.07195068 17.48935577 6.0859375 18.41015625 C6.10434692 19.3366246 6.12275635 20.26309296 6.14172363 21.21763611 C6.20047824 24.18669266 6.25321671 27.15580882 6.3046875 30.125 C6.35636962 33.06919016 6.40953223 36.01331166 6.46765137 38.9573822 C6.50377228 40.78833512 6.53631312 42.61936362 6.5645752 44.45045471 C6.66759104 49.69107562 7.05518163 54.79141774 7.77282715 59.98606873 C7.8046875 62.0625 7.8046875 62.0625 5.9921875 64.625 C2.05544325 67.21200337 -0.4458084 67.38450028 -5.1953125 67.0625 C-8.08694864 65.94527695 -9.65240991 65.04364926 -11.16796875 62.3046875 C-11.91562533 60.5868161 -12.56307244 58.82611702 -13.1953125 57.0625 C-13.69160156 57.46082031 -14.18789062 57.85914062 -14.69921875 58.26953125 C-23.67880311 65.27258471 -32.69423959 68.40377794 -44.1953125 67.0625 C-51.04708306 64.87346728 -56.29414478 61.1373811 -60.1953125 55.0625 C-62.18906138 49.08125337 -62.19439826 42.38815978 -59.5078125 36.625 C-55.32416931 29.54165929 -48.89295542 27.05696423 -41.1953125 25.0625 C-35.0038265 23.93832708 -28.76162325 23.14502934 -22.51611328 22.38793945 C-20.05153433 22.04233839 -17.63080217 21.57207191 -15.1953125 21.0625 C-15.1128125 19.804375 -15.0303125 18.54625 -14.9453125 17.25 C-14.89890625 16.54230469 -14.8525 15.83460937 -14.8046875 15.10546875 C-15.02516998 12.91023699 -15.02516998 12.91023699 -16.9140625 11.35546875 C-21.33148945 8.85175587 -26.42097285 8.55130683 -31.37890625 9.46484375 C-35.99394599 10.98519797 -38.99363308 13.51857926 -42.5390625 16.7578125 C-45.03506837 18.7240058 -47.05757706 19.0625 -50.1953125 19.0625 C-52.9453125 18.4375 -52.9453125 18.4375 -55.1953125 17.0625 C-56.7798018 14.39767709 -57.22889326 12.71732473 -57.0703125 9.625 C-54.93477344 3.37092132 -52.49142691 0.92649088 -46.6953125 -2.1875 C-33.26145769 -8.37649478 -11.94343943 -10.5408291 0 0 Z M-25.4453125 35.3125 C-26.40050781 35.51746094 -27.35570312 35.72242188 -28.33984375 35.93359375 C-33.45075922 37.10647421 -37.53215201 38.04681779 -41.1953125 42.0625 C-42.02864583 45.5625 -42.02864583 45.5625 -41.1953125 49.0625 C-38.48030807 52.28656776 -36.47454978 52.9938351 -32.3828125 54 C-27.83905185 54.35149847 -24.14921672 53.284459 -20.1953125 51.0625 C-17.64748469 48.8399268 -15.70597584 47.08382669 -14.1953125 44.0625 C-14.12497481 42.18870395 -14.1110103 40.31248898 -14.1328125 38.4375 C-14.14183594 37.43460938 -14.15085937 36.43171875 -14.16015625 35.3984375 C-14.17175781 34.62757812 -14.18335938 33.85671875 -14.1953125 33.0625 C-17.89766455 33.0625 -21.85305952 34.4967294 -25.4453125 35.3125 Z " fill="#75FECC" transform="translate(235.1953125,46.9375)"/>
<path d="M0 0 C5.46524026 5.19927095 9.25732059 11.07263575 9.86328125 18.78125 C9.88777344 19.9259375 9.91226563 21.070625 9.9375 22.25 C9.99357422 23.96703125 9.99357422 23.96703125 10.05078125 25.71875 C9.625 28.75 9.625 28.75 7.90216064 30.41816711 C5.26515564 31.96046058 3.79824252 32.1145256 0.76464844 32.09057617 C-0.19604553 32.09034958 -1.1567395 32.09012299 -2.14654541 32.08988953 C-3.17584167 32.07440567 -4.20513794 32.05892181 -5.265625 32.04296875 C-6.85525055 32.03660149 -6.85525055 32.03660149 -8.47698975 32.03010559 C-11.85991887 32.0133203 -15.24225109 31.97566755 -18.625 31.9375 C-20.91926223 31.92245301 -23.2135338 31.90876463 -25.5078125 31.89648438 C-31.1304118 31.86341728 -36.75266325 31.81321903 -42.375 31.75 C-41.94966359 33.35613513 -41.5092206 34.95827446 -41.0625 36.55859375 C-40.69705078 37.89748657 -40.69705078 37.89748657 -40.32421875 39.26342773 C-38.84233031 43.14538086 -36.83049701 44.51832485 -33.375 46.75 C-27.19746439 48.80917854 -19.85533996 48.87986487 -13.9375 46 C-11.60290903 44.65496816 -9.86014396 43.29793128 -7.8125 41.5 C-4.46933587 39.0997796 -2.39876553 39.16472501 1.625 39.75 C4.0625 41.25 4.0625 41.25 5.625 43.75 C6.3373544 48.65733033 6.26856841 50.65593371 3.75 54.9375 C-3.81414797 62.75733748 -14.90473441 64.740195 -25.3125 65.0625 C-37.08355486 64.82073251 -46.39930933 61.06467669 -54.625 52.6875 C-60.94472593 45.17349516 -63.08392014 36.45670418 -62.69140625 26.7578125 C-61.6362173 16.72700392 -58.86358513 7.22678172 -51.55859375 -0.0625 C-36.51092107 -12.2222355 -14.76372027 -12.50066826 0 0 Z M-36.93359375 9.07421875 C-40.00610893 12.54789318 -40.85525926 15.19077778 -42.375 19.75 C-31.485 19.75 -20.595 19.75 -9.375 19.75 C-10.30644779 14.16131324 -11.12763944 11.27905694 -15.375 7.75 C-22.57353372 3.93649107 -30.44699891 3.5630517 -36.93359375 9.07421875 Z " fill="#72FECB" transform="translate(398.375,49.25)"/>
<path d="M0 0 C3.61954403 1.88271868 5.42218639 5.40921939 6.80488586 9.129776 C7.52421684 11.51610484 8.17233888 13.91135496 8.796875 16.32421875 C9.03300003 17.19882751 9.26912506 18.07343628 9.5124054 18.97454834 C10.25958653 21.74989439 10.9916166 24.528957 11.72265625 27.30859375 C12.4675056 30.10159865 13.21543158 32.89375527 13.96504211 35.68548584 C14.42925953 37.41849203 14.89013179 39.15239841 15.34733582 40.88726807 C16.41070047 45.07340539 16.41070047 45.07340539 18.03515625 49.05859375 C18.34743164 47.88876953 18.65970703 46.71894531 18.98144531 45.51367188 C20.15066367 41.14281944 21.33123919 36.7751002 22.51513672 32.40820312 C23.02438946 30.52361277 23.53062544 28.63820438 24.03369141 26.75195312 C24.76048353 24.02900124 25.49834638 21.30924967 26.23828125 18.58984375 C26.45824768 17.75618286 26.67821411 16.92252197 26.90484619 16.06359863 C30.58580842 2.6700068 30.58580842 2.6700068 35.41015625 -0.50390625 C38.71800448 -1.05521429 40.81865775 -0.94656203 44.03515625 0.05859375 C46.91015625 2.12109375 46.91015625 2.12109375 49.03515625 5.05859375 C49.90685922 12.57310654 47.40195579 18.77807814 44.87109375 25.78125 C44.44140289 26.99952988 44.01171204 28.21780975 43.56900024 29.4730072 C42.66014186 32.04847646 41.74331975 34.62090562 40.81982422 37.19116211 C39.65274986 40.43940139 38.49900284 43.69215318 37.35035992 46.94694996 C21.57338963 91.64410429 21.57338963 91.64410429 13.03515625 97.05859375 C8.41828139 99.11053813 4.02266353 99.72425707 -0.96484375 99.05859375 C-4.27702338 97.70918723 -6.44412105 96.57931645 -8.96484375 94.05859375 C-10.07492848 90.98451297 -9.98345826 89.15166631 -9.33984375 85.93359375 C-5.4408965 81.2138155 0.19222142 81.00879999 6.03515625 80.05859375 C7.0040307 75.70254657 7.02746823 72.93264874 5.54394531 68.73095703 C5.19317932 67.71615265 4.84241333 66.70134827 4.48101807 65.65579224 C3.89680084 64.03373367 3.89680084 64.03373367 3.30078125 62.37890625 C2.90695251 61.25217499 2.51312378 60.12544373 2.10736084 58.96456909 C0.84611939 55.36624818 -0.43414667 51.77503015 -1.71484375 48.18359375 C-2.56243849 45.7738735 -3.40880647 43.36372138 -4.25390625 40.953125 C-8.37591456 29.1758913 -8.37591456 29.1758913 -12.70214844 17.47290039 C-14.29552799 13.16442919 -14.90324987 9.57843973 -13.96484375 5.05859375 C-9.70160049 -0.47210021 -6.75235528 -1.26200089 0 0 Z " fill="#6AFEC8" transform="translate(465.96484375,40.94140625)"/>
<path d="M0 0 C2.62080348 1.8816025 3.73751707 3.04023917 4.58857727 6.15211487 C5.10324432 9.71466144 5.14752178 13.2253144 5.14526367 16.81616211 C5.14862228 17.58754013 5.1519809 18.35891815 5.15544128 19.15367126 C5.16491363 21.69491196 5.16689241 24.23608652 5.16796875 26.77734375 C5.17118351 28.54944384 5.17454775 30.32154366 5.17805481 32.09364319 C5.18403649 35.80486669 5.18589566 39.51606694 5.18530273 43.22729492 C5.18520108 47.97631097 5.19886151 52.72517764 5.21607494 57.47415829 C5.22720691 61.13306866 5.22922159 64.79194303 5.22869301 68.45086861 C5.229871 70.20150836 5.23428261 71.95214911 5.24202538 73.70277214 C5.25185104 76.15343505 5.2489373 78.60377496 5.24291992 81.05444336 C5.24853943 81.77307556 5.25415894 82.49170776 5.25994873 83.2321167 C5.22881269 88.23642207 4.77573952 92.85431475 1.5 96.8125 C-1.26718892 99.00319123 -2.92846847 99.11593218 -6.375 98.8125 C-7.14585937 98.75707031 -7.91671875 98.70164062 -8.7109375 98.64453125 C-11.90593333 97.74491638 -12.98965723 96.6607134 -15 94 C-15.39452813 90.99339411 -15.54722719 88.35360646 -15.51757812 85.34765625 C-15.5245874 84.47567596 -15.53159668 83.60369568 -15.53881836 82.70529175 C-15.55641806 79.82403686 -15.54476865 76.94376481 -15.53125 74.0625 C-15.53394435 72.0599753 -15.53782629 70.05745186 -15.54284668 68.05493164 C-15.54874441 63.85843447 -15.54016984 59.66227789 -15.52148438 55.46582031 C-15.49869479 50.08523956 -15.51181638 44.70545687 -15.53577423 39.3249054 C-15.55022472 35.18992087 -15.54562963 31.05512571 -15.53526306 26.9201355 C-15.53259371 24.93618679 -15.53587285 22.95222091 -15.54518127 20.96829224 C-15.55533445 18.19584579 -15.53986323 15.42469372 -15.51757812 12.65234375 C-15.52567505 11.83144257 -15.53377197 11.01054138 -15.54211426 10.1647644 C-15.48864729 6.57641476 -15.32890085 4.4418279 -13.15515137 1.52172852 C-8.88654021 -1.49229056 -4.89910877 -1.27416337 0 0 Z " fill="#78FFCD" transform="translate(437,15)"/>
<path d="M0 0 C3.43091225 3.08782103 3.57145008 6.54308084 4 11 C4.45439453 10.20335937 4.45439453 10.20335937 4.91796875 9.390625 C8.21660235 3.82862127 10.86535677 -0.12926577 17.375 -1.9375 C21.91490672 -2.01577425 24.03804634 -1.17519024 28 1 C30.04031755 4.06047632 30.31593524 4.93495994 30.375 8.4375 C30.40335938 9.19933594 30.43171875 9.96117187 30.4609375 10.74609375 C29.8050635 13.95320645 28.60736451 15.05625043 26 17 C22.94140625 17.65234375 22.94140625 17.65234375 19.5625 17.9375 C15.41909249 18.48097385 13.33151994 18.77898671 9.8125 21.125 C6.13782963 26.95378748 5.71677038 33.29822366 5.7265625 40.04296875 C5.70629463 41.54362754 5.6854443 43.04427855 5.6640625 44.54492188 C5.64140627 46.87531204 5.62495536 49.20539305 5.61914062 51.53588867 C5.60960813 53.80962702 5.57585883 56.08203082 5.5390625 58.35546875 C5.54410797 59.04827438 5.54915344 59.74108002 5.55435181 60.45487976 C5.45768593 65.22508738 4.36688065 67.64373175 1 71 C-2.06429776 72.53214888 -4.6165642 72.22938548 -8 72 C-11.15322484 70.6686384 -12.58469276 69.83252769 -14.11955261 66.7557373 C-15.08931847 63.72043957 -15.26030729 61.27881494 -15.2746582 58.09570312 C-15.28419022 56.93099487 -15.29372223 55.76628662 -15.30354309 54.56628418 C-15.30263168 53.3172229 -15.30172028 52.06816162 -15.30078125 50.78125 C-15.30506638 49.49061646 -15.3093515 48.19998291 -15.31376648 46.87023926 C-15.32121122 44.14343142 -15.32094973 41.4167531 -15.31567383 38.68994141 C-15.30987486 35.20293168 -15.32682821 31.71645238 -15.3500185 28.22953033 C-15.36832484 24.89258151 -15.36457016 21.55574874 -15.36328125 18.21875 C-15.372491 16.96968872 -15.38170074 15.72062744 -15.39118958 14.43371582 C-15.38496078 13.26900757 -15.37873199 12.10429932 -15.37231445 10.90429688 C-15.37294388 9.88235229 -15.3735733 8.86040771 -15.3742218 7.80749512 C-14.93740324 4.53038517 -13.93585438 2.65816302 -12 0 C-7.67308046 -2.76442082 -4.60968062 -1.87801803 0 0 Z " fill="#7BFECE" transform="translate(140,42)"/>
</svg>
